<svg width="61" height="60" viewBox="0 0 61 60" fill="none" xmlns="http://www.w3.org/2000/svg">
<g clip-path="url(#clip0_2138_1039)">
<path d="M8.00156 9.80078V50.3008C3.10156 44.9008 0.101562 37.8008 0.101562 30.0008C0.101562 22.2008 3.10156 15.1008 8.00156 9.80078Z" fill="#89BCD9"/>
<path d="M11.2031 14.1992L28.5031 48.8992H11.2031V14.1992Z" fill="#89BCD9"/>
<path d="M30.1016 45.0016L13.1016 11.1016H47.1016L30.1016 45.0016Z" fill="#89BCD9"/>
<path d="M30.0984 0C37.8984 0 44.9984 3 50.2984 7.9H9.89844C15.1984 3 22.2984 0 30.0984 0Z" fill="#89BCD9"/>
<path d="M49.0031 48.8992H31.7031L49.0031 14.1992V48.8992Z" fill="#89BCD9"/>
<path d="M50.2984 52.1016C44.9984 57.0016 37.8984 60.0016 30.0984 60.0016C22.2984 60.0016 15.1984 57.0016 9.89844 52.1016H50.2984Z" fill="#89BCD9"/>
<path d="M52.2031 50.2008V9.80078C57.1031 15.1008 60.1031 22.2008 60.1031 30.0008C60.1031 37.8008 57.1031 44.9008 52.2031 50.2008Z" fill="#89BCD9"/>
<path d="M11.2031 14.2031L28.5031 48.9031H11.2031V14.2031Z" fill="#89BCD9"/>
<path d="M30.1016 45.0016L13.1016 11.1016H47.1016L30.1016 45.0016Z" fill="#89BCD9"/>
<path d="M31.7031 48.9031L49.0031 14.2031V48.9031H31.7031Z" fill="#89BCD9"/>
<path d="M13.1016 11.1016H47.1016L30.1016 45.0016L13.1016 11.1016Z" fill="#89BCD9"/>
</g>
<defs>
<clipPath id="clip0_2138_1039">
<rect width="60" height="60" fill="white" transform="translate(0.101562)"/>
</clipPath>
</defs>
</svg>
