<svg width="57" height="60" viewBox="0 0 57 60" fill="none" xmlns="http://www.w3.org/2000/svg">
<path d="M21.3141 54.8917C17.3199 53.7545 13.8072 51.6607 10.7403 48.7365C9.77741 49.0794 8.7967 49.4224 7.79816 49.7473C7.33455 49.8917 6.87095 49.8375 6.38951 49.657C5.53362 49.3321 5.01652 48.7004 4.64207 47.9242C4.12497 46.8953 3.46522 45.9567 2.94812 44.9278C2.48451 43.9711 1.80693 43.1408 1.41465 42.148C1.21851 41.6607 0.701407 41.3357 0.701407 40.722C0.2378 39.9639 0.683576 39.296 0.951042 38.6282C1.02237 38.4477 1.11152 38.213 1.272 38.1408C1.91392 37.852 2.23488 37.2022 2.76981 36.8051C3.01944 36.6245 3.28691 36.426 3.5722 36.2094C3.16209 34.1336 2.80547 32.0578 2.80547 29.9278C2.80547 27.8159 3.17992 25.7762 3.5722 23.7545C2.87679 23.1047 2.23488 22.4729 1.5573 21.8773C0.861887 21.2635 0.451773 20.5054 0.540928 19.7112C0.594421 19.278 0.719238 18.8087 0.933211 18.4477C1.59296 17.3827 2.19921 16.2635 2.84113 15.1805C3.35823 14.3141 3.80401 13.4116 4.3746 12.5632C4.67773 12.13 4.85604 11.6245 5.15917 11.1733C5.74759 10.3249 6.92444 9.90975 7.88732 10.1986C8.74321 10.4513 9.5456 10.8303 10.4193 10.9928C10.5085 11.0108 10.5798 11.1372 10.669 11.2274C13.7537 8.3213 17.2664 6.24549 21.2963 5.0361C21.4567 4.54874 21.4924 4.02527 21.6885 3.51986C21.8312 3.14079 21.7955 2.67148 21.8669 2.25632C22.063 1.17329 22.7227 0.541516 23.6678 0.216606C24.0066 0.108303 24.3454 0 24.7555 0C27.2518 0.0361011 29.7482 0.0361011 32.2445 0C32.9578 0 33.564 0.288809 34.1346 0.613718C34.6517 0.884477 34.937 1.46209 35.0797 2.00361C35.3293 2.99639 35.4719 4.00722 35.6681 5.05415C39.6801 6.20939 43.1928 8.2852 46.2597 11.2094C47.2226 10.8664 48.2033 10.5235 49.2018 10.1986C49.6654 10.0542 50.1291 10.1083 50.6105 10.2888C51.4664 10.6137 51.9835 11.2455 52.3579 12.0217C52.875 13.0505 53.5348 13.9892 54.0519 15.0181C54.5155 15.9747 55.1931 16.8051 55.5854 17.7978C55.7815 18.2852 56.2986 18.6101 56.2986 19.2238C56.7622 19.982 56.3164 20.6498 56.049 21.3177C55.9776 21.4982 55.8885 21.7329 55.728 21.8051C55.0861 22.0939 54.7651 22.7437 54.2302 23.1408C53.9806 23.3213 53.7131 23.5199 53.4278 23.7365C53.8379 25.8123 54.1945 27.8881 54.1945 30.018C54.1945 32.13 53.8736 34.1697 53.4278 36.1913C54.1232 36.8412 54.7651 37.4729 55.4427 38.0686C56.1381 38.6823 56.5482 39.4404 56.4591 40.2347C56.4056 40.6679 56.2986 41.1372 56.0668 41.4982C55.4249 42.5451 54.8186 43.6282 54.1945 44.6931C53.41 46.0108 52.768 47.4368 51.8587 48.6823C51.6982 49.3682 51.0563 49.4224 50.5927 49.6751C50.0934 49.9458 49.5941 49.8736 49.0414 49.7112C48.2211 49.4765 47.4366 49.0614 46.5807 48.9531C46.4915 48.935 46.4202 48.8087 46.331 48.7184C43.2463 51.6607 39.7514 53.7545 35.6681 54.9278C35.4719 55.9025 35.2936 56.9134 35.0797 57.9061C34.8657 58.8809 34.2238 59.4946 33.3144 59.7834C32.9756 59.8917 32.619 60 32.2267 60C29.7303 59.9639 27.234 59.9639 24.7377 60C24.0244 60 23.4182 59.7112 22.8476 59.3863C22.3305 59.1155 22.0273 58.5379 21.9203 57.9964C21.7242 56.9314 21.5281 55.9386 21.3141 54.8917ZM22.4731 38.9892C22.8297 38.7906 23.2398 38.6643 23.2577 38.231C23.2933 37.5812 23.3825 36.9134 23.2398 36.2996C22.9902 35.2527 22.5444 34.2419 22.277 33.1949C22.0987 32.5271 21.7064 31.8953 21.7242 31.1733C21.1536 29.7473 20.797 28.2491 20.3156 26.8051C19.9233 25.6137 19.638 24.3863 19.21 23.213C18.9782 22.5632 18.9247 21.8412 18.4968 21.2635C18.4611 21.2094 18.4433 21.1733 18.4433 21.1733C17.9619 20.8484 17.4626 20.9567 17.0346 20.9567C16.785 21.1913 16.571 21.3899 16.3749 21.5704C16.3571 22.148 15.9469 22.5993 16.0183 23.1588C15.3942 24.5668 15.1267 26.083 14.6096 27.5271C14.3422 28.2671 14.1817 29.0253 13.9677 29.7834C13.7716 30.5415 13.3436 31.2274 13.3436 32.0397C12.666 33.574 12.3272 35.2166 11.828 36.8231C11.7032 37.2202 11.6318 37.5993 11.8815 37.9783C11.9528 38.0866 11.9171 38.2491 11.9171 38.231C12.2024 38.5379 12.4164 38.7545 12.5947 38.9711C12.9335 38.9711 13.2901 38.9711 13.6646 38.9711C13.9142 38.6462 14.1638 38.3394 14.3956 38.0325C14.3422 37.0036 14.5561 36.3177 15.0197 35.2166C16.7672 35.2166 18.5146 35.2166 20.2621 35.2166C20.4047 35.7942 20.476 36.3538 20.6722 36.8773C20.7613 37.0939 20.8505 37.3105 20.8148 37.5271C20.7613 38.1949 20.9753 38.7184 21.7242 38.9711C21.9025 38.9892 22.17 38.9892 22.4731 38.9892ZM26.6456 38.9892C27.127 38.9531 27.6798 39.0975 28.0721 38.7004C28.2147 38.5199 28.3395 38.3394 28.5178 38.0866C28.5178 36.2816 28.5178 34.3863 28.5178 32.491C29.8195 32.491 31.1033 32.4368 32.3693 32.509C33.1361 32.5451 33.7602 32.3105 34.3664 31.9314C34.6517 31.7509 34.9013 31.4801 35.151 31.2274C35.8107 30.5776 36.1317 29.7834 36.1495 28.8448C36.1495 27.3646 36.1495 25.9025 36.1495 24.4224C36.1495 24.2058 36.096 23.9711 36.0425 23.7545C35.8464 22.9783 35.4363 22.4007 34.8835 21.8953C34.2416 21.2996 33.4927 20.9386 32.6011 20.9386C30.6041 20.9386 28.6248 20.9386 26.6099 20.9386C26.4138 21.1552 26.2176 21.3718 25.9858 21.5884C25.9858 27.148 25.9858 32.7437 25.9858 38.3574C26.2176 38.556 26.4316 38.7726 26.6456 38.9892ZM39.4839 38.9892C40.7143 38.9892 41.9624 38.9892 43.1928 38.9892C43.4067 38.7726 43.6207 38.556 43.8347 38.3574C43.8347 38.0144 43.8347 37.6895 43.8347 37.3466C43.8347 37.3105 43.8347 37.2924 43.8347 37.2744C43.5672 36.769 43.1571 36.4621 42.6222 36.4079C42.6222 32.0939 42.6222 27.7978 42.6222 23.5921C43.0145 23.3935 43.3533 23.213 43.7455 22.9964C43.799 22.5271 43.8347 22.0397 43.8704 21.6968C43.5851 21.3718 43.3889 21.1372 43.2284 20.9567C41.9446 20.9567 40.6964 20.9567 39.5909 20.9567C39.2878 21.2274 39.0738 21.426 38.8063 21.6787C38.8598 22.1119 38.9312 22.5993 38.9847 23.0144C39.4126 23.231 39.7514 23.4116 40.0545 23.574C40.0545 27.87 40.0545 32.1661 40.0545 36.426C39.8762 36.4621 39.6801 36.426 39.6087 36.5162C39.3591 36.769 38.9312 36.8412 38.842 37.2563C38.842 37.6173 38.842 37.9783 38.842 38.3394C39.056 38.556 39.2699 38.7726 39.4839 38.9892Z" fill="#89BCD9"/>
<path d="M19.3186 32.4559C18.2666 32.492 17.161 32.51 16.0555 32.5461C16.0199 32.5461 15.9664 32.6183 15.8594 32.7086C15.8772 31.5894 16.5013 30.6869 16.5726 29.658C17.1075 28.7555 17.161 27.6905 17.5177 26.6797C17.6246 26.788 17.7851 26.8963 17.7851 26.9865C17.803 27.7627 18.2487 28.4306 18.3914 29.1707C18.4984 29.6761 18.7837 30.1634 18.855 30.6689C18.9263 31.3187 19.3543 31.806 19.3186 32.4559Z" fill="#89BCD9"/>
<path d="M33.6744 28.9524C33.5496 29.151 33.4426 29.3495 33.2999 29.53C33.0503 29.8188 32.7294 29.9813 32.3192 29.9632C31.0711 29.9452 29.8229 29.9632 28.5391 29.9632C28.5391 27.8152 28.5391 25.6672 28.5391 23.4651C29.8407 23.4651 31.1781 23.447 32.4976 23.4651C33.1216 23.4831 33.6566 24.1329 33.6744 24.8188C33.6744 25.956 33.6744 27.0932 33.6744 28.2304C33.6744 28.4831 33.6744 28.7178 33.6744 28.9524Z" fill="#89BCD9"/>
</svg>
