<svg width="65" height="60" viewBox="0 0 65 60" fill="none" xmlns="http://www.w3.org/2000/svg">
<path fill-rule="evenodd" clip-rule="evenodd" d="M62.7385 15.7639L57.0567 23.7083L51.3749 15.7639H54.4728C54.2367 9.86111 49.3606 5.13889 43.401 5.13889C38.3721 5.13889 34.1073 8.51389 32.7598 13.1111C31.1205 12.5833 29.4257 12.25 27.7031 12.0972C27.8976 11.3611 28.1477 10.625 28.4533 9.91667C29.2729 7.98611 30.4398 6.25 31.9263 4.76389C33.4127 3.27778 35.1492 2.09722 37.0802 1.29167C39.0806 0.430556 41.206 0 43.401 0C45.5959 0 47.7213 0.430556 49.7218 1.27778C51.6528 2.09722 53.3892 3.26389 54.8757 4.75C56.3621 6.23611 57.529 7.97222 58.3487 9.90278C59.1405 11.7639 59.5711 13.7361 59.6128 15.7639H62.7385Z" fill="#89BCD9"/>
<path fill-rule="evenodd" clip-rule="evenodd" d="M54.7985 60.0009V56.5842H35.2109C35.3499 56.5148 35.4888 56.4592 35.6277 56.3898C37.7532 55.3759 39.7119 54.0564 41.4623 52.4453C41.6985 52.2231 41.9207 52.0148 42.1291 51.8064C42.3653 51.5703 42.6153 51.3203 42.8515 51.0564C43.1293 50.7509 43.4072 50.4314 43.6572 50.112H54.7985V46.6953L64.1061 53.3481L54.7985 60.0009Z" fill="#89BCD9"/>
<path fill-rule="evenodd" clip-rule="evenodd" d="M47.5719 35.3212C47.5719 38.2795 46.9885 41.1545 45.8493 43.8628C44.8769 46.1684 43.5155 48.2795 41.8207 50.1267C41.5984 50.3629 41.3762 50.599 41.1539 50.8351C40.9455 51.0434 40.7371 51.2379 40.5287 51.4462C38.8895 52.9601 37.0558 54.1962 35.0553 55.1545C34.7775 55.2934 34.4858 55.4184 34.194 55.5434C34.1801 55.5434 34.1801 55.5573 34.1663 55.5573C32.4992 56.2656 30.7072 56.6129 28.8873 56.6129H-0.0078125V50.1545H26.8174C34.9303 50.1545 41.5845 43.6684 41.6957 35.5573C41.6957 35.4878 41.6957 35.4184 41.6957 35.349C41.6957 26.4878 34.4997 19.2934 25.6366 19.2934C16.7736 19.2656 9.5776 26.4462 9.5776 35.3212H13.3006L6.64641 44.6267L-0.0078125 35.3212H3.71522C3.71522 32.3628 4.29868 29.4878 5.43781 26.7795C6.54916 24.1684 8.11895 21.8212 10.1333 19.8073C12.1476 17.7934 14.4953 16.2101 17.107 15.1128C19.8159 13.974 22.6915 13.3906 25.6505 13.3906C26.2479 13.3906 26.8313 13.4184 27.4148 13.4601C29.1374 13.599 30.8183 13.9323 32.4576 14.474C33.041 14.6684 33.6106 14.8767 34.1801 15.1267C36.7918 16.2378 39.1396 17.8073 41.1539 19.8212C43.1682 21.8351 44.7519 24.1823 45.8493 26.7934C46.9885 29.4878 47.5719 32.3628 47.5719 35.3212Z" fill="#89BCD9"/>
</svg>
