<svg width="61" height="60" viewBox="0 0 61 60" fill="none" xmlns="http://www.w3.org/2000/svg">
<path d="M60.4143 4.7749C59.9777 2.48295 58.2042 0.627558 55.9395 0.136426C55.8304 0.109141 55.7213 0.109141 55.5848 0.0818554C55.5575 0.0818554 55.5303 0.0272851 55.503 0H5.46205C5.43476 0.0272851 5.40748 0.0818554 5.35291 0.0818554C3.08824 0.463847 1.17828 2.26467 0.659863 4.55662C0.632578 4.63847 0.578008 4.74761 0.523438 4.85675V55.0341C0.550723 55.0887 0.605293 55.116 0.605293 55.1705C1.151 57.6808 2.67896 59.236 5.16191 59.8636C5.24377 59.8909 5.29834 59.9454 5.35291 60H55.5848C55.6394 59.9727 55.6667 59.9181 55.7213 59.8909C58.2042 59.3179 59.7322 57.8172 60.3597 55.3342C60.387 55.2524 60.3597 55.1433 60.387 55.0614C60.387 55.0341 60.4416 55.0068 60.4689 54.9795V4.93861C60.4689 4.88404 60.4143 4.85675 60.4143 4.7749ZM35.312 33.2606H35.0118C32.7472 33.2606 30.4552 33.2606 28.1906 33.2606C28.0814 33.2606 27.9723 33.2606 27.8631 33.2606C27.8631 33.2879 27.8359 33.2879 27.8359 33.3151C27.8359 33.4243 27.8359 33.5334 27.8359 33.6426V54.6794H21.8604V33.2879H14.357V28.513H35.2847V33.2606H35.312ZM55.4484 47.5307C55.3938 48.4584 55.2574 49.3588 54.8754 50.2319C54.7663 50.5048 54.6844 50.7503 54.548 51.0232C54.0569 52.06 53.2383 52.7967 52.2833 53.397C51.1919 54.0791 49.9914 54.4611 48.7363 54.7067C47.3447 54.9795 45.9532 55.0614 44.5344 55.0068C43.8522 54.9795 43.1701 54.9795 42.488 54.8977C40.8781 54.7067 39.2956 54.352 37.8222 53.6426C37.7404 53.6153 37.6312 53.4789 37.6312 53.397C37.6312 51.6235 37.6312 49.8499 37.6312 48.0764C37.6312 48.0491 37.6312 48.0218 37.6312 47.9673C38.0678 48.2674 38.5043 48.5675 38.9409 48.8131C40.005 49.4407 41.1783 49.8772 42.3788 50.1501C43.4157 50.3956 44.4525 50.4229 45.4893 50.3684C46.2806 50.3411 47.0719 50.1501 47.7813 49.7954C48.4088 49.4679 48.9273 49.0314 49.0637 48.2947C49.2001 47.6398 49.1455 46.985 48.7635 46.412C48.2178 45.5935 47.4539 45.075 46.608 44.6385C45.653 44.1746 44.6981 43.7654 43.7158 43.3288C42.2697 42.6739 40.8509 41.9645 39.6776 40.8731C38.7226 39.9727 38.0132 38.9086 37.6858 37.6262C37.4948 36.8622 37.4402 36.0982 37.4675 35.3342C37.4948 33.4516 38.1769 31.8417 39.5139 30.5048C40.6053 29.4134 41.9423 28.7585 43.4157 28.3765C44.4252 28.131 45.4348 27.94 46.4716 27.9127C47.2083 27.9127 47.945 27.8308 48.6544 27.8581C49.7731 27.8854 50.8645 27.94 51.9559 28.2128C52.6653 28.4038 53.402 28.5948 54.1114 28.7585C54.2479 28.7858 54.3024 28.8677 54.3024 29.0314C54.3024 30.7231 54.3024 32.442 54.3024 34.1337C54.3024 34.1883 54.3024 34.2428 54.2751 34.3247C54.0569 34.1883 53.8659 34.0791 53.6749 33.97C52.8018 33.4789 51.8741 33.1514 50.9191 32.9059C49.855 32.6603 48.7908 32.4966 47.6994 32.5239C46.9627 32.5512 46.1987 32.6603 45.5166 32.9059C44.6708 33.206 43.9887 33.6971 43.6885 34.5975C43.4429 35.307 43.6339 35.9072 44.0705 36.4802C44.6162 37.1896 45.3529 37.6808 46.1442 38.0628C47.2083 38.5812 48.2997 39.0177 49.3365 39.5089C50.5371 40.0819 51.7376 40.6548 52.7472 41.5007C53.6203 42.2374 54.4116 43.0559 54.8481 44.1473C55.0937 44.8022 55.312 45.4843 55.312 46.221C55.4211 46.6576 55.4757 47.0941 55.4484 47.5307Z" fill="#89BCD9"/>
</svg>
