<svg width="20" height="25" viewBox="0 0 20 25" fill="none" xmlns="http://www.w3.org/2000/svg">
<path d="M5.18457 1.92969C5.19003 1.93341 5.20013 1.94008 5.21289 1.95508C5.25249 2.00174 5.29688 2.0929 5.29688 2.21875C5.29688 3.91565 5.52699 5.54872 5.9541 7.07715V7.07812C6.00002 7.25033 5.95463 7.40573 5.88477 7.48828L3.47852 10.3242L3.07617 10.7979L3.32227 11.3682C4.97227 15.1898 7.64233 18.336 10.9316 20.3223L11.6602 20.7627L12.2109 20.1133L14.6172 17.2773C14.6232 17.2703 14.6294 17.2657 14.6338 17.2617C15.9591 17.7742 17.3894 18.0523 18.8564 18.0547C18.8618 18.0582 18.8722 18.0652 18.8857 18.0811C18.9253 18.1277 18.9697 18.219 18.9697 18.3447V22.8438C18.9697 22.9696 18.9253 23.0608 18.8857 23.1074C18.873 23.1224 18.862 23.128 18.8564 23.1318C9.29426 23.1196 1.28125 13.9233 1.28125 2.21875C1.28125 2.0929 1.32564 2.00174 1.36523 1.95508C1.37794 1.94014 1.38807 1.93345 1.39355 1.92969H5.18457Z" stroke="#F8F5EC" stroke-width="2"/>
</svg>
